<svg id="Layer_1" enable-background="new 0 0 512 512" viewBox="0 0 512 512" xmlns="http://www.w3.org/2000/svg"><g><g><path clip-rule="evenodd" d="m152.18 4.628h272.529v348.354l-58.083 61.981h-214.446z" fill="#f3e8d8" fill-rule="evenodd"/></g><g><path clip-rule="evenodd" d="m152.354 169.28c35.862 0 65.093-29.231 65.093-65.064 0-35.862-29.231-65.093-65.093-65.093-35.833 0-65.064 29.231-65.064 65.093.001 35.833 29.231 65.064 65.064 65.064z" fill="#fedb41" fill-rule="evenodd"/></g><path d="m159.524 97.789v-15.302c3.676 1.549 5.933 4.163 5.933 6.605 0 3.96 3.21 7.169 7.169 7.169s7.169-3.209 7.169-7.169c0-10.493-8.47-19.076-20.272-21.58v-6.953c0-3.96-3.21-7.169-7.169-7.169s-7.169 3.209-7.169 7.169v6.955c-11.786 2.506-20.244 11.088-20.244 21.578 0 10.276 8.595 18.944 20.244 21.514v15.307c-3.659-1.544-5.905-4.145-5.905-6.574 0-3.96-3.21-7.169-7.169-7.169s-7.169 3.209-7.169 7.169c0 10.476 8.458 19.046 20.244 21.549v6.955c0 3.96 3.21 7.169 7.169 7.169s7.169-3.209 7.169-7.169v-6.954c11.802-2.501 20.272-11.073 20.272-21.551s-8.47-19.048-20.272-21.549zm-20.244-8.697c0-2.438 2.246-5.049 5.905-6.599v13.172c-3.658-1.543-5.905-4.144-5.905-6.573zm20.244 36.828v-13.16c3.676 1.543 5.933 4.148 5.933 6.58s-2.257 5.037-5.933 6.58z" fill="#e2a63b"/><g><path d="m372.589 108.477h-136.76c-3.959 0-7.169-3.209-7.169-7.169s3.21-7.169 7.169-7.169h136.759c3.959 0 7.169 3.209 7.169 7.169.001 3.959-3.209 7.169-7.168 7.169z" fill="#606060"/></g><g><path d="m372.589 144.164h-136.76c-3.959 0-7.169-3.209-7.169-7.169s3.21-7.169 7.169-7.169h136.759c3.959 0 7.169 3.209 7.169 7.169.001 3.959-3.209 7.169-7.168 7.169z" fill="#606060"/></g><g><path d="m372.589 179.823h-136.76c-3.959 0-7.169-3.209-7.169-7.169s3.21-7.169 7.169-7.169h136.759c3.959 0 7.169 3.209 7.169 7.169s-3.209 7.169-7.168 7.169z" fill="#606060"/></g><g><path d="m372.589 215.51h-177.537c-3.959 0-7.169-3.209-7.169-7.169s3.21-7.169 7.169-7.169h177.537c3.959 0 7.169 3.209 7.169 7.169s-3.21 7.169-7.169 7.169z" fill="#606060"/></g><g><path clip-rule="evenodd" d="m152.354 39.123c35.949 0 65.093 29.143 65.093 65.093s-29.144 65.064-65.093 65.064c-2.589 0-5.148-.146-7.679-.436 32.314-3.81 57.385-31.296 57.385-64.628 0-33.361-25.072-60.817-57.385-64.627 2.531-.321 5.091-.466 7.679-.466z" fill="#e2a63b" fill-rule="evenodd"/></g><g><path clip-rule="evenodd" d="m400.016 4.628h24.693v348.354l-58.083 61.981h-24.693l58.083-61.981z" fill="#e0caa8" fill-rule="evenodd"/></g><g><path clip-rule="evenodd" d="m329.804 454.461 3.461 5.962c5.846 10.18 18.964 13.67 29.114 7.824 10.18-5.875 13.67-18.993 7.824-29.144l-69.019-119.512c-1.105-1.92-2.472-3.607-4.014-5.032-32.896-44.733-74.284-58.374-127.946-27.398h-50.143l-46.595-.378 46.798 128.848h40.341l46.827 81.09c5.875 10.151 18.964 13.67 29.143 7.824v-.029c10.151-5.846 13.67-18.964 7.795-29.114l7.01 12.129c5.846 10.151 18.964 13.67 29.114 7.795 10.151-5.875 13.67-18.963 7.824-29.143l5.526 9.598c5.875 10.151 18.964 13.67 29.144 7.795 10.152-5.847 13.671-18.964 7.796-29.115z" fill="#f7c5b8" fill-rule="evenodd"/></g><g><path clip-rule="evenodd" d="m23.768 267.006h72.248c12.798 0 23.268 10.471 23.268 23.268v145.107c0 12.827-10.471 23.297-23.268 23.297h-72.248c-12.798 0-23.268-10.471-23.268-23.297v-145.106c0-12.798 10.471-23.269 23.268-23.269z" fill="#6ba7ff" fill-rule="evenodd"/></g><g><path clip-rule="evenodd" d="m249.587 340.098 20.941-24.112c.727-.495 1.425-1.076 2.094-1.745 12.623-12.856 20.04-8.667 25.653 1.425l73.091 125.765 41.243-.727s17.684-81.468 17.364-86.209c-.32-4.712-35.135-73.906-35.135-73.906l-45.693-30.598c-34.088-19.952-67.187-22.483-98.745 1.367l-63.173 72.655 21.727 18.905c11.955 10.384 30.22 9.105 40.633-2.82z" fill="#f2a183" fill-rule="evenodd"/></g><g><path d="m246.219 487.488c-2.479 0-4.889-1.287-6.217-3.587l-21.261-36.85c-1.979-3.43-.803-7.815 2.627-9.794 3.43-1.975 7.814-.802 9.793 2.627l21.261 36.85c1.979 3.43.803 7.815-2.627 9.794-1.128.65-2.36.96-3.576.96z" fill="#f2a183"/></g><g><path d="m287.346 473.353c-2.478 0-4.887-1.285-6.215-3.584l-27.166-47.032c-1.98-3.429-.806-7.814 2.623-9.795 3.426-1.981 7.814-.807 9.794 2.622l27.166 47.032c1.98 3.429.806 7.814-2.623 9.795-1.129.653-2.362.962-3.579.962z" fill="#f2a183"/></g><g><path d="m330.363 462.621c-2.478 0-4.886-1.285-6.215-3.584l-30.947-53.576c-1.98-3.429-.806-7.814 2.622-9.795 3.427-1.98 7.814-.807 9.795 2.622l30.947 53.576c1.98 3.429.806 7.814-2.622 9.795-1.13.652-2.363.962-3.58.962z" fill="#f2a183"/></g><g><path clip-rule="evenodd" d="m415.984 267.006h72.219c12.827 0 23.297 10.471 23.297 23.268v145.107c0 12.827-10.471 23.297-23.297 23.297h-72.219c-12.798 0-23.268-10.471-23.268-23.297v-145.106c0-12.798 10.47-23.269 23.268-23.269z" fill="#6ba7ff" fill-rule="evenodd"/></g><g><path clip-rule="evenodd" d="m463.393 267.006h24.81c12.827 0 23.297 10.471 23.297 23.268v145.107c0 12.827-10.471 23.297-23.297 23.297h-24.81c12.798 0 23.268-10.471 23.268-23.297v-145.106c0-12.798-10.471-23.269-23.268-23.269z" fill="#477dcf" fill-rule="evenodd"/></g></g></svg>