<svg id="Layer_1" enable-background="new 0 0 512 512" viewBox="0 0 512 512" xmlns="http://www.w3.org/2000/svg"><g><g><path d="m497.8 189.9c0-1.3-.6-2.6-1.5-3.5 0 0-56.8-56.8-56.8-56.8-1.1-1.1-2.8-1.6-4.3-1.5h-11.6l-9.4-48.6c-.8-4.2-3.1-7.8-6.6-10.1-3.5-2.4-7.7-3.3-11.8-2.5l-95.7 18.4-1.4-1.8c.4-1 .9-2 1.3-3.1l9.5-1c3.7-.2 6.5-3.3 6.5-6.9v-18.7c0-3.5-2.6-6.5-6.2-7h-.2l-9.8-1c-.4-1.1-.9-2.1-1.3-3.1l6.5-7.9c2-2.9 1.7-6.9-.8-9.1l-13.2-13.1c-2.5-2.6-6.7-2.7-9.4-.5l-7.6 6.2c-1-.4-2.1-.9-3.1-1.3l-1-9.7c-.3-3.6-3.3-6.4-7-6.4h-18.6c-3.5 0-6.5 2.6-7 6.3l-1 9.8c-1 .4-2.1.9-3.1 1.3l-7.5-6.2c-2.7-2.3-6.8-2.1-9.5.4l-13.1 13.1c-2.5 2.5-2.7 6.5-.5 9.4l6.2 7.6c-.5 1-.9 2.1-1.3 3.1l-9.9 1c-3.5.5-6.2 3.5-6.2 7v18.6c0 3.6 2.9 6.7 6.3 6.9l9.8 1c.4 1.1.9 2.1 1.3 3.1-5.8 7.5-12.7 11.5-2.9 19.8l-26.1 5 3.6-4.4c2.5-3.2 2.3-7.5-.5-10.6l-20.3-20.1c-2.9-2.9-7.7-3.1-10.6-.5l-13.2 10.8c-2.5-1.2-5.1-2.3-7.9-3.2l-1.7-16.8c-.4-4.1-3.8-7.2-7.9-7.2h-28.6c-4 0-7.3 3-7.9 7.1l-1.6 16.8c-2.7.9-5.4 2-7.9 3.2l-13.2-10.7c-3.1-2.5-7.7-2.4-10.6.5l-20.3 20.3c-2.9 2.9-3.1 7.5-.5 10.6l10.7 13.2c-1.2 2.6-2.4 5.3-3.3 7.9l-17.1 1.7c-3.9.5-6.9 3.9-6.9 7.9v28.6c0 4 3 7.4 7.1 7.9l16.9 1.7c.9 2.7 2 5.3 3.3 7.9l-10.7 13.1c-2.6 3.2-2.4 7.9.5 10.6l20.3 20.3c2.8 2.8 7.3 3.1 10.7.5l13.1-10.8c2.6 1.2 5.2 2.4 7.9 3.3l1.7 17.1c.5 4 3.9 7 7.8 7h28.7c4.1 0 7.6-3.2 7.8-7.1l1.7-16.9c2.7-.9 5.4-2 7.9-3.3l13.1 10.8c3.1 2.6 7.8 2.4 10.6-.5l7-7 4.3 22.5c-2 3-3.6 6.3-4.5 9.9-18.3-.7-35.1 10.6-41.3 27.7h-70.1c-15.9 0-28.7 12.9-28.7 28.8 0 2.9 2.4 5.4 5.4 5.4h44.9l-26.8 70.9c-7.5 1.3-13.1 8.1-12.9 16h-5.3c-2.9 0-5.4 2.4-5.4 5.4v6c0 28.4 23.1 51.4 51.4 51.4h15.6c28.4 0 51.5-23.1 51.5-51.4v-6c0-2.9-2.4-5.4-5.4-5.4h-7.1c.2-7.2-4.5-13.4-11-15.4l-29.1-71.7h90.4l-10 148.8c-10.4.2-17.4 9.7-16.2 19.7h-9c-13.6 0-22.2 12.2-20.7 25.3 0 2.9 2.4 5.4 5.4 5.4h346.5c9 0 16.4-7.3 16.4-16.4 0-.4.1-304.5 0-304.8zm-56.8-43.6 38.5 38.5h-32.9c-3.1 0-5.6-2.5-5.6-5.6zm-238.7-77.3v-11.9l9.9-1c2.1-.2 4-1.7 4.6-3.8.7-4.5 6.1-9.3 2.7-13.8 0 0-6.3-7.7-6.3-7.7l8.4-8.4 7.7 6.3c4.5 3.5 9.1-2 13.7-2.6 2.1-.6 3.6-2.5 3.9-4.7l1-9.8h11.8l1 9.9c.2 2.1 1.7 4 3.8 4.6 4.4.6 9.3 6.2 13.7 2.6 0 0 7.7-6.3 7.7-6.3l8.4 8.4-6.3 7.7c-3.5 4.6 1.9 8.9 2.6 13.8.6 2.1 2.5 3.6 4.7 3.8l9.9 1v11.9l-9.9 1c-2.1.2-4 1.7-4.6 3.8-.8 4.9-6.1 9.2-2.6 13.7 0 0 6.3 7.6 6.3 7.6l-8.4 8.4-7.7-6.3c-4.5-3.5-9.3 2.1-13.7 2.6-2.1.6-3.6 2.5-3.8 4.6l-1 9.9h-11.8l-1-9.9c-.7-5.7-7.9-5.1-11.6-7.9-3.4-2.1-6.8 1.2-9.2 3.3-.2.1-4.2 3.5-4.4 3.6l-8.4-8.4 6.3-7.7c3.4-4.5-2-9.1-2.7-13.7-.6-2.1-2.4-3.6-4.6-3.8zm-33.1 134c0 .2-12.3 12.2-12.3 12.3l-13.9-11.4c-1.7-1.4-4.1-1.6-6-.5-3.8 2.1-8 3.9-12.4 5.1-2.1.6-3.6 2.4-3.9 4.6l-1.8 17.9h-23.6l-1.8-17.9c-.2-2.2-1.7-4-3.8-4.6-4.5-1.3-8.6-3.1-12.4-5.1-1.9-1.1-4.3-.9-6 .5l-13.9 11.4-16.6-16.7 11.2-13.9c1.4-1.7 1.6-4 .6-5.9-2.2-4.1-4-8.4-5.2-12.5-.6-2.1-2.5-3.6-4.6-3.8l-17.9-1.8v-23.6l17.9-1.7c2.1-.2 4-1.8 4.6-3.9 1.2-4.2 3-8.5 5.2-12.6 1-1.9.8-4.2-.6-5.9l-11.4-13.9 16.7-16.7 13.9 11.4c1.7 1.4 4 1.6 6 .6 3.9-2.1 8.1-3.9 12.5-5.1 2.1-.6 3.6-2.4 3.8-4.6l1.8-17.9h23.5l1.8 17.9c.2 2.2 1.8 4 3.9 4.6 4.4 1.3 8.6 3 12.5 5.1 1.9 1 4.3.8 6-.5l13.9-11.4 16.7 16.6-11.5 13.9c-.3.3-.5.7-.7 1.1-.1.1 0 .1-.1.1-.4.8-.4 1.7-.4 2.6 1.4 5 4.6 9.5 5.8 14.7.6 2.1 2.5 3.6 4.6 3.9l17.9 1.7v23.6l-17.9 1.8c-1.6.2-3.1 1.1-3.9 2.4-2 4.7-3.2 9.6-5.8 13.9-1 2-1 4.3.5 6.1 0 0 11.4 13.9 11.4 13.9zm3.4-22.3c1.2-2.6 2.3-5.2 3.3-7.9l17.1-1.7c2.9-.4 5.4-2.4 6.4-5 1.1-.6.3-30 .5-31.5 0-4.2-3.3-7.3-7.1-7.9 0 0-16.9-1.7-16.9-1.7-.5-1.6-1.1-3.1-1.8-4.7l41-7.9c2.6 3.2 7.3 4.4 10.6 1.6 0 0 5.8-4.8 5.8-4.8l3.6-.7c.4.2.9.4 1.3.5l1 9.9c.4 3.5 3.4 6.2 7 6.2h18.6c3.6 0 6.7-2.8 7-6.3l1-9.8c1.1-.4 2.1-.9 3.1-1.3l7.6 6.2c2.8 2.3 6.9 2.1 9.4-.5l13-13c1.6-1.4 2.2-3.6 2.2-5.7l91.4-17.5c1.3-.3 2.7 0 3.8.8s1.9 1.9 2.1 3.2l9 46.6h-177.2c-9 0-16.4 7.3-16.4 16.3v88.8c0-2.5-10.8-5.5-12.8-5.9-7.9-1.7-16.2 0-23.1 4.1l-4.4-22.8 4.2-4.1c2.8-2.9 3.1-7.3.5-10.6.1.2-10.8-12.9-10.8-12.9zm-122.1 217.9c.2-7.1 10.6-6.6 10.2.4h-10.2zm86.4 11.1c.3 22.6-18.1 41.3-40.7 41.3h-15.6c-22.7 0-41-18.7-40.7-41.3zm-22.6-11.1c.2-7 10.6-6.6 10.2.4h-10.2zm-1.4-14.5c-5.7 2.5-9.6 8.3-9.4 14.9h-32c.2-6-3.1-11.4-8-14.2l24-63.6zm-72.2-83c2.3-7.3 9.1-12.7 17.2-12.7h74.1c2.4 0 4.6-1.7 5.2-4 3.6-13.9 16.2-23.7 30.6-23.7 4.3-.1 10.8 1.2 11.5-4.8 2.9-24.6 38.3-24.5 41.1.1.7 5.9 7.3 4.7 11.5 4.8 11.2.1 21.7 6.2 27.3 15.9 3 3.7 2.3 11.7 8.5 11.8h74.1c8.1 0 14.9 5.3 17.2 12.7-83.7-.1-234.7-.1-318.3-.1zm312.8 108.6 6.2.1c.3 22.7-18 41.3-40.7 41.2h-15.6c-22.7 0-41-18.6-40.7-41.2h6.1c.1 0 .1-.1.1-.1zm-15.5-10.7c-.3-7.4 10.6-7.3 10.2 0zm-63.8 0c-.3-7.3 10.6-7.3 10.2 0zm53.1-.4v.4h-32.1c.2-6.3-3.5-11.9-8.7-14.6 4.6-12.4 18.6-50.2 23.4-63.2l26.1 63.3c-5.2 2.7-8.7 8-8.7 14.1zm-108.3-86.7v74l-5-74zm-5.7 148.8h-27l10-148.8h7c1.2 18.5 8.9 133.2 10 148.8zm-43.3 16.6c0-3.3 2.7-5.9 6-5.9h48.1c4.9.5 5.9 4.8 5.5 9h-59.6zm74.9 23h-104.5c.4-5.1 4.7-9.2 9.9-9.2h92.7c6.9-.7 15.5.7 16.2 9.2-4.7-.1-9.5 0-14.3 0zm242.2-5.7c0 3.1-2.5 5.6-5.6 5.6h-203.8c-1.5.1-6.4.7-7.7 0-.5-10.7-9.8-20-20.7-19.9 0 0-8.9 0-9 0 .8 0-.9-8.1-1.1-8.8-1.7-4.4-5.1-8-9.5-9.7v-150h72.1c-5.7 15.3-20.9 56.6-26.4 71.3-7 1.7-12.2 8.6-12 15.8-2.5.2-8.1-.8-9.9 1.6-2.4 1.8-1.4 7.1-1.6 9.7 0 28.4 23.1 51.5 51.5 51.5h15.6c14.9 0 28.1-6.4 37.6-16.5 10.2-10.4 14.9-25.8 13.9-41 0-2.9-2.4-5.4-5.4-5.4h-6.1c.2-7.2-4.9-14.2-12.1-15.9-4.9-12-24.9-60.2-29.3-71.3h47.6c2.9 0 5.4-2.4 5.4-5.4 0-15.9-12.9-28.8-28.7-28.8h-70.2c-6.2-16.9-23.3-28.3-41.4-27.7-.1-.4-.3-.9-.4-1.3v-104.4c0-3.1 2.5-5.6 5.6-5.6h194.9v40.5c0 9 7.3 16.3 16.4 16.3h40.5v299.4z"/></g><g><path d="m213.3 460.7h-27l10-148.8h7c1.2 18.5 8.9 133.2 10 148.8z" fill="#2c4d66"/></g><g><path d="m359.7 409.8c.3 22.7-18 41.3-40.7 41.2h-15.6c-22.7 0-41-18.6-40.7-41.2h6.1c.1 0 .1-.1.1-.1h84.6l.1.1z" fill="#2c4d66"/></g><g><path d="m136.9 409.7c.3 22.6-18.1 41.3-40.7 41.3h-15.6c-22.7 0-41-18.7-40.7-41.3z" fill="#2c4d66"/></g><g><path d="m479.5 184.8h-32.9c-3.1 0-5.6-2.5-5.6-5.6v-32.9z" fill="#f4c122"/></g><g><path d="m412.5 128h-177.1c-9 0-16.4 7.3-16.4 16.3v88.8c0-2.5-10.8-5.5-12.8-5.9-7.9-1.7-16.2 0-23.1 4.1l-4.4-22.8 4.2-4.1c2.8-2.9 3.1-7.3.5-10.6 0 0-10.8-13.1-10.8-13.1 1.2-2.6 2.3-5.2 3.3-7.9l17.1-1.7c2.9-.4 5.4-2.4 6.4-5 1.1-.6.3-30 .5-31.5 0-4.2-3.3-7.3-7.1-7.9 0 0-16.9-1.7-16.9-1.7-.5-1.6-1.1-3.1-1.8-4.7l41-7.9c2.6 3.2 7.3 4.4 10.6 1.6 0 0 5.8-4.8 5.8-4.8l3.6-.7c.4.2.9.4 1.3.5l1 9.9c.4 3.5 3.4 6.2 7 6.2h18.6c3.6 0 6.7-2.8 7-6.3l1-9.8c1.1-.4 2.1-.9 3.1-1.3l7.6 6.2c2.8 2.3 6.9 2.1 9.4-.5l13-13c1.6-1.4 2.2-3.6 2.2-5.7l91.4-17.5c1.3-.3 2.7 0 3.8.8s1.9 1.9 2.1 3.2z" fill="#f4c122"/></g><g><path d="m446.6 195.5c-9 0-16.4-7.3-16.4-16.3v-40.5h-194.8c-3.1 0-5.6 2.5-5.6 5.6v104.4c.1.4.3.9.4 1.3 18.1-.7 35.1 10.8 41.4 27.7h70.2c15.8 0 28.7 12.9 28.7 28.8 0 2.9-2.4 5.4-5.4 5.4h-47.6c4.4 10.7 24.5 59.6 29.3 71.3 7.1 1.7 12.3 8.6 12.1 15.9h6.2c2.9 0 5.4 2.4 5.4 5.4 1 15.1-3.7 30.5-13.9 41-9.4 10.1-22.7 16.5-37.6 16.5h-15.6c-28.4 0-51.5-23.1-51.5-51.5.3-2.6-.9-7.8 1.6-9.7 1.8-2.4 7.4-1.4 9.9-1.6-.2-7.2 5-14.1 12-15.8 5.4-14.6 20.8-56.2 26.4-71.3h-72.1v150c4.4 1.7 7.8 5.3 9.5 9.7.2.7 1.8 8.8 1.1 8.8h9c10.9-.1 20.2 9.2 20.7 19.9 1.3.7 6.2.1 7.7 0h203.7c3.1 0 5.6-2.6 5.6-5.6v-299.4zm-182.2-18.2h107.8c2.9 0 5.4 2.4 5.4 5.4 0 2.9-2.4 5.4-5.4 5.4h-107.8c-7-.2-7-10.7 0-10.8zm185.4 192h-55.4c-2.9 0-5.4-2.4-5.4-5.4s2.4-5.4 5.4-5.4h55.4c7 .3 7 10.7 0 10.8zm0-44.9h-55.4c-2.9 0-5.4-2.4-5.4-5.4 0-2.9 2.4-5.4 5.4-5.4h55.4c7 .2 7 10.7 0 10.8zm0-44.9h-55.4c-2.9 0-5.4-2.4-5.4-5.4s2.4-5.4 5.4-5.4h55.4c7 .2 7 10.6 0 10.8zm0-44.9h-185.4c-7-.1-7.1-10.6 0-10.7h185.4c7 0 7.1 10.5 0 10.7z" fill="#fdf3d3"/></g><g><path d="m295.2 56.2c-5.7-.6-5.2-8.1-7.8-11.6-1.1-1.9-.9-4.3.5-6l6.3-7.7-8.4-8.4-7.7 6.3c-4.4 3.5-9.3-2.1-13.7-2.6-2.1-.6-3.6-2.5-3.8-4.6l-1-9.9h-11.8l-1 9.8c-.7 5.7-7.8 5-11.6 7.8-1.9 1.1-4.2.9-6-.5l-7.7-6.3-8.4 8.4 6.3 7.7c3.4 4.4-2 9.2-2.7 13.8-.6 2.1-2.5 3.6-4.6 3.8l-9.9 1v11.8l9.9 1c2.2.2 4 1.7 4.6 3.8.7 4.6 6.1 9.2 2.7 13.7 0 0-6.3 7.7-6.3 7.7l8.4 8.4 4.3-3.5s.1-.1.1-.1c2.4-2.1 5.8-5.4 9.2-3.3 3.8 2.8 10.9 2.2 11.6 7.9 0 0 1 9.9 1 9.9h11.8l1-9.9c.2-2.1 1.7-4 3.8-4.6 4.4-.6 9.3-6.2 13.7-2.6 0 0 7.7 6.3 7.7 6.3l8.4-8.4-6.3-7.6c-3.5-4.6 1.9-8.8 2.6-13.7.6-2.1 2.5-3.6 4.6-3.8l9.9-1v-12.1zm-41.5 37.3c-40.2-1.3-40.2-59.5 0-60.8 40.2 1.3 40.2 59.5 0 60.8z" fill="#5b90b9"/></g><g><path d="m161.6 178.7c2.6-4.3 3.8-9.2 5.8-13.9.9-1.3 2.3-2.2 3.9-2.4l17.9-1.8v-23.6l-17.9-1.7c-2.1-.2-4-1.8-4.6-3.9-1.2-5.3-4.4-9.7-5.8-14.7 0-.9 0-1.8.4-2.6.1 0 0-.1.1-.1.2-.4.4-.7.7-1.1 0 0 11.4-13.9 11.4-13.9l-16.7-16.6-13.9 11.4c-1.7 1.3-4 1.6-6 .5-3.9-2.1-8.1-3.9-12.5-5.1-2.1-.6-3.6-2.4-3.9-4.6l-1.8-17.9h-23.4l-1.8 17.9c-.2 2.2-1.7 4-3.8 4.6-4.4 1.3-8.6 3-12.5 5.1-1.9 1-4.3.8-6-.6l-13.9-11.3-16.7 16.7 11.4 13.9c1.4 1.7 1.6 4 .6 5.9-2.2 4.1-4 8.4-5.2 12.6-.6 2.1-2.5 3.6-4.6 3.9l-17.9 1.7v23.6l17.9 1.8c2.1.2 4 1.7 4.6 3.8 1.2 4.2 3 8.4 5.2 12.5 1 1.9.8 4.2-.6 5.9l-11.3 13.9 16.6 16.7 13.9-11.4c1.7-1.4 4.1-1.6 6-.5 3.8 2.1 8 3.9 12.4 5.1 2.1.6 3.6 2.4 3.8 4.6l1.8 17.9h23.5l1.8-17.9c.2-2.2 1.8-4 3.9-4.6 4.5-1.3 8.6-3.1 12.4-5.1 1.9-1.1 4.3-.9 6 .5l13.9 11.4c.1-.1 12.3-12.2 12.3-12.3l4.3-4.3-11.4-13.9c-1.3-1.8-1.3-4.2-.3-6.1zm-54.5 14.2c-24.3 0-44.1-19.7-44.1-44 2.2-58.3 85.9-58.3 88.1 0 0 24.3-19.7 44-44 44z" fill="#5b90b9"/></g><g><path d="m229.6 477.3v3.1h-59.6v-3.1c0-3.3 2.7-5.9 6-5.9h48.1c3.1.2 5.5 2.8 5.5 5.9z" fill="#5b90b9"/></g><g><path d="m259.2 500.3c-5.4-.1-110.3 0-118.9 0 .4-5.1 4.7-9.2 9.9-9.2h92.8c7-.7 15.5.7 16.2 9.2z" fill="#5b90b9"/></g><g><path d="m341.7 288.5h-74.1c-2.4 0-4.6-1.7-5.2-4-3.5-13.7-16.5-23.6-30.6-23.7-4.3-.1-10.8 1.1-11.5-4.8-.8-8.3-7-15.7-15.1-17.9-11.9-3.4-25 5.4-26 17.9-.3 2.7-2.6 4.8-5.3 4.8h-6.2c-14.4 0-26.9 9.8-30.6 23.7-.6 2.3-2.8 4-5.2 4h-74c-8.1 0-15 5.4-17.2 12.7h318.2c-2.3-7.4-9.1-12.7-17.2-12.7zm-141.9 2.7c-22.5-.6-22.5-33.6 0-34.2 22.6.6 22.6 33.6 0 34.2z" fill="#5b90b9"/></g><g><path d="m253.7 32.7c-40.2 1.3-40.2 59.5 0 60.8 40.2-1.3 40.2-59.5 0-60.8zm0 50.1c-25.9-.7-25.9-38.7 0-39.4 26 .7 26 38.7 0 39.4z"/></g><g><path d="m107.1 104.9c-24.3 0-44.1 19.7-44.1 44 2.2 58.3 85.9 58.3 88.1 0 0-24.3-19.7-44-44-44zm0 77.3c-18.4 0-33.3-15-33.3-33.3 1.6-44 65.1-44.1 66.6 0 0 18.3-15 33.3-33.3 33.3z"/></g><g><path d="m199.8 257c-22.5.6-22.5 33.6 0 34.2 22.6-.6 22.6-33.6 0-34.2zm0 23.4c-8.3-.2-8.3-12.5 0-12.7 8.4.2 8.4 12.6 0 12.7z"/></g><g><path d="m377.6 182.7c0 2.9-2.4 5.4-5.4 5.4h-107.8c-2.9 0-5.4-2.4-5.4-5.4 0-2.9 2.4-5.4 5.4-5.4h107.8c3 0 5.4 2.4 5.4 5.4z"/></g><g><path d="m455.1 229.2c0 2.9-2.4 5.4-5.4 5.4h-185.3c-7-.1-7.1-10.6 0-10.7h185.4c2.9-.1 5.3 2.3 5.3 5.3z"/></g><g><path d="m455.1 274.1c0 2.9-2.4 5.4-5.4 5.4h-55.4c-2.9 0-5.4-2.4-5.4-5.4s2.4-5.4 5.4-5.4h55.4c3 .1 5.4 2.5 5.4 5.4z"/></g><g><path d="m455.1 319.1c0 2.9-2.4 5.4-5.4 5.4h-55.4c-2.9 0-5.4-2.4-5.4-5.4 0-2.9 2.4-5.4 5.4-5.4h55.4c3 0 5.4 2.4 5.4 5.4z"/></g><g><path d="m455.1 364c0 2.9-2.4 5.4-5.4 5.4h-55.4c-2.9 0-5.4-2.4-5.4-5.4s2.4-5.4 5.4-5.4h55.4c3 0 5.4 2.4 5.4 5.4z"/></g></g></svg>