<svg id="Layer_1" enable-background="new 0 0 512 512" viewBox="0 0 512 512" xmlns="http://www.w3.org/2000/svg" xmlns:xlink="http://www.w3.org/1999/xlink"><linearGradient id="SVGID_1_" gradientUnits="userSpaceOnUse" x1="93.112" x2="418.879" y1="418.883" y2="93.116"><stop offset="0" stop-color="#fc4422"/><stop offset="1" stop-color="#ffbb32"/></linearGradient><path d="m44.417 297.069c.529 2.711-1.241 5.33-3.952 5.86-.318.06-.637.09-.96.09-2.351 0-4.439-1.659-4.898-4.05-8.47-43.589-3.91-88.41 13.19-129.58 17.41-41.909 46.722-77.209 84.78-102.099 65.192-42.641 147.672-48.451 217.912-16.021l-5.591-18.85c-.782-2.64.73-5.431 3.371-6.21 2.646-.79 5.427.719 6.218 3.369l8.84 29.801c.351 1.15.281 2.42-.281 3.591-.08.17-.178.349-.29.519-.45.71-1.049 1.269-1.742 1.661l-26.399 15.56c-2.379 1.41-5.451.608-6.851-1.771-1.4-2.38-.609-5.439 1.77-6.838l18.533-10.931c-67.51-31.9-147.171-26.611-210.022 14.49-73.648 48.17-110.4 135.08-93.628 221.409zm433.071-83.539c-.52-2.72-3.142-4.5-5.853-3.969-2.711.52-4.49 3.139-3.966 5.849 16.538 86.161-20.251 172.881-93.722 220.93-62.851 41.11-142.512 46.39-210.022 14.49l18.532-10.93c2.379-1.399 3.17-4.459 1.77-6.839s-4.472-3.169-6.85-1.771l-26.39 15.56c-.721.4-1.348 1-1.798 1.75-.084.121-.155.24-.21.369-.581 1.171-.661 2.471-.314 3.651l8.84 29.801c.651 2.18 2.641 3.58 4.79 3.58.482 0 .96-.061 1.433-.211 2.65-.779 4.158-3.57 3.371-6.209l-5.595-18.85c30.032 13.86 62.271 20.74 94.462 20.74 43.12-.009 86.132-12.35 123.45-36.76 37.979-24.84 67.271-60.07 84.68-101.86 17.119-41.081 21.75-85.801 13.392-129.321zm-339.839 139.435c-4.65-5.687-8.898-11.723-12.694-18.013-3.795-6.29-7.149-12.866-10.001-19.635-3.19-7.572-.382-16.17 6.662-20.401 12.833-7.708 20.659-21.819 20.382-36.788-.277-14.976-8.611-28.767-21.727-35.997-7.147-3.939-10.288-12.47-7.415-20.106 5.19-13.795 12.34-26.779 21.246-38.522 4.94-6.514 13.844-8.401 20.994-4.43 13.096 7.272 29.227 6.998 42.058-.735 12.823-7.728 20.62-21.869 20.314-36.837-.168-8.214 5.602-15.178 13.715-16.504 14.529-2.375 29.39-2.626 43.994-.77 8.137 1.035 14.166 7.756 14.31 15.958.263 14.966 8.566 28.784 21.668 36.025 13.104 7.243 29.236 6.925 42.049-.821 7.03-4.25 15.946-2.715 21.148 3.644 4.651 5.686 8.894 11.724 12.689 18.013 3.796 6.29 7.141 12.868 9.996 19.637 3.195 7.574.386 16.179-6.661 20.412-12.822 7.701-20.659 21.82-20.382 36.777.277 14.975 8.613 28.767 21.727 35.997 3.456 1.905 6.113 4.944 7.484 8.649 1.373 3.712 1.331 7.755-.06 11.455-5.187 13.803-12.348 26.786-21.255 38.534-4.938 6.514-13.847 8.386-20.994 4.42-13.092-7.266-29.232-6.997-42.059.734-12.82 7.728-20.61 21.882-20.304 36.846.167 8.212-5.619 15.166-13.724 16.495-14.529 2.382-29.391 2.626-43.995.77-8.137-1.035-14.166-7.756-14.31-15.957-.263-14.972-8.563-28.779-21.668-36.026-6.209-3.433-13.197-5.221-20.29-5.221-7.663 0-15.193 2.077-21.755 6.042-7.029 4.25-15.941 2.716-21.142-3.645zm43.348-96.965c0 41.355 33.641 75 74.997 75 41.358 0 75.001-33.643 75.001-75 0-41.358-33.644-75.001-75.001-75.001-41.356 0-74.997 33.646-74.997 75.001zm5.998 0c0-38.043 30.956-69 69-69 38.05 0 69.004 30.95 69.004 69 0 38.056-30.95 69-69.004 69-38.049 0-69-30.952-69-69zm31.634 2.125 23.5 23.501c.562.562 1.322.874 2.116.874.8 0 1.559-.307 2.126-.874l47.001-47.001c1.171-1.171 1.171-3.071 0-4.241-1.179-1.179-3.072-1.179-4.251 0l-44.875 44.874-21.375-21.375c-1.177-1.177-3.065-1.177-4.242 0-1.175 1.176-1.175 3.066 0 4.242z" fill="url(#SVGID_1_)"/></svg>