<svg id="Layer_1" enable-background="new 0 0 512 512" viewBox="0 0 512 512" xmlns="http://www.w3.org/2000/svg"><g><g><path clip-rule="evenodd" d="m255.52 79.891h40.187v41.736h-40.187z" fill="#9dc6fb" fill-rule="evenodd"/></g><path d="m40.658 217.434c0-3.905 3.166-7.071 7.071-7.071h71.654c3.905 0 7.071 3.165 7.071 7.071s-3.166 7.071-7.071 7.071h-71.654c-3.905 0-7.071-3.166-7.071-7.071zm-3.944 43.385h71.711c3.905 0 7.071-3.165 7.071-7.071 0-3.905-3.166-7.071-7.071-7.071h-71.711c-3.905 0-7.071 3.165-7.071 7.071.001 3.906 3.166 7.071 7.071 7.071zm76.086 29.215c0-3.905-3.166-7.071-7.071-7.071h-98.158c-3.905 0-7.071 3.165-7.071 7.071s3.166 7.071 7.071 7.071h98.159c3.904-.001 7.07-3.166 7.07-7.071zm5.077 36.314c0-3.905-3.166-7.071-7.071-7.071h-74.092c-3.905 0-7.071 3.165-7.071 7.071 0 3.905 3.166 7.071 7.071 7.071h74.092c3.905 0 7.071-3.165 7.071-7.071zm6.727 29.244h-76.875c-3.905 0-7.071 3.165-7.071 7.071s3.166 7.071 7.071 7.071h76.875c3.905 0 7.071-3.165 7.071-7.071s-3.166-7.071-7.071-7.071z" fill="#ffd54f"/><g><path d="m168.611 159.535c-2.185 0-4.339-1.009-5.723-2.911l-22.317-30.664c-2.298-3.157-1.601-7.58 1.556-9.877 3.158-2.299 7.581-1.602 9.878 1.556l22.317 30.664c2.298 3.157 1.601 7.58-1.556 9.877-1.256.914-2.712 1.355-4.155 1.355z" fill="#eb4c56"/></g><g><path d="m125.728 139.915c-2.184 0-4.337-1.008-5.721-2.909-2.299-3.156-1.604-7.579 1.552-9.878l37.376-27.222c3.157-2.298 7.58-1.604 9.878 1.553 2.299 3.156 1.604 7.579-1.552 9.878l-37.376 27.222c-1.256.914-2.714 1.356-4.157 1.356z" fill="#fe646f"/></g><g><path clip-rule="evenodd" d="m275.599 454.54c93.626 0 170.013-76.358 170.013-169.984s-76.387-170.013-170.013-170.013-169.984 76.387-169.984 170.013c-.001 93.626 76.358 169.984 169.984 169.984z" fill="#fe646f" fill-rule="evenodd"/></g><g><path clip-rule="evenodd" d="m229.589 56.428h92.049v29.574h-92.049z" fill="#8bb6ed" fill-rule="evenodd"/></g><g><path clip-rule="evenodd" d="m275.599 432.366c81.435 0 147.84-66.405 147.84-147.811 0-81.435-66.405-147.84-147.84-147.84-81.407 0-147.811 66.405-147.811 147.84 0 81.407 66.404 147.811 147.811 147.811z" fill="#eb4c56" fill-rule="evenodd"/></g><g><path clip-rule="evenodd" d="m275.599 419.717c74.465 0 135.19-60.725 135.19-135.161 0-74.465-60.725-135.19-135.19-135.19-74.436 0-135.161 60.725-135.161 135.19-.001 74.436 60.724 135.161 135.161 135.161z" fill="#e8f0fe" fill-rule="evenodd"/></g><g><path d="m383.911 291.626h-10.355c-3.905 0-7.071-3.165-7.071-7.071s3.166-7.071 7.071-7.071h10.355c3.905 0 7.071 3.165 7.071 7.071s-3.166 7.071-7.071 7.071z"/></g><g><path d="m352.186 368.214c-1.814 0-3.628-.694-5.01-2.08l-7.315-7.343c-2.756-2.767-2.747-7.245.02-10 2.766-2.757 7.243-2.747 10 .019l7.315 7.343c2.756 2.767 2.747 7.245-.02 10-1.379 1.374-3.185 2.061-4.99 2.061z"/></g><path d="m282.669 176.242v10.355c0 3.905-3.166 7.071-7.071 7.071s-7.071-3.165-7.071-7.071v-10.355c0-3.905 3.166-7.071 7.071-7.071s7.071 3.166 7.071 7.071zm-7.07 199.172c-3.905 0-7.071 3.165-7.071 7.071v10.384c0 3.905 3.166 7.071 7.071 7.071s7.071-3.165 7.071-7.071v-10.384c-.001-3.906-3.166-7.071-7.071-7.071zm81.587-172.445c-2.761-2.763-7.239-2.763-10 0l-7.315 7.315c-2.761 2.761-2.761 7.238 0 9.999 1.381 1.382 3.19 2.071 5 2.071 1.809 0 3.619-.69 5-2.071l7.315-7.315c2.761-2.762 2.761-7.238 0-9.999zm-155.842 145.841-7.314 7.343c-2.756 2.766-2.747 7.244.02 9.999 1.38 1.375 3.185 2.061 4.99 2.061 1.814 0 3.628-.694 5.01-2.081l7.314-7.343c2.756-2.766 2.747-7.244-.02-9.999-2.767-2.756-7.244-2.749-10 .02zm-23.674-71.326h-10.355c-3.905 0-7.071 3.165-7.071 7.071s3.166 7.071 7.071 7.071h10.355c3.905 0 7.071-3.165 7.071-7.071s-3.166-7.071-7.071-7.071zm23.684-57.202c1.381 1.382 3.19 2.071 5 2.071 1.809 0 3.619-.691 4.999-2.07 2.762-2.762 2.762-7.239 0-10l-7.314-7.315c-2.761-2.763-7.238-2.76-9.999-.001-2.762 2.762-2.762 7.239 0 10z" fill="#407093"/><g><path d="m278.525 282.335c-.758 0-1.529-.123-2.286-.381-3.695-1.262-5.668-5.281-4.406-8.977l17.871-52.321c1.261-3.695 5.282-5.669 8.976-4.405 3.695 1.262 5.668 5.281 4.406 8.977l-17.871 52.321c-1.003 2.937-3.749 4.786-6.69 4.786z" fill="#407093"/></g><g><path clip-rule="evenodd" d="m422.75 244.512v22.145c10.326 2.18 19.993 6.253 28.57 11.847l15.662-15.662c9.552 6.827 17.928 15.174 24.755 24.726l-15.69 15.69c5.594 8.577 9.667 18.215 11.847 28.57h22.173c.947 5.679 1.434 11.531 1.434 17.497 0 5.967-.488 11.789-1.434 17.498h-22.173c-2.18 10.326-6.253 19.993-11.847 28.57l15.69 15.662c-6.827 9.552-15.203 17.928-24.755 24.755l-15.662-15.69c-8.577 5.593-18.243 9.667-28.57 11.847v22.173c-5.708.946-11.531 1.434-17.498 1.434s-11.818-.488-17.498-1.434v-22.173c-10.355-2.18-19.993-6.253-28.57-11.847l-15.69 15.69c-9.552-6.827-17.899-15.203-24.726-24.755l15.662-15.691c-5.565-8.548-9.638-18.215-11.818-28.541h-22.172c-.947-5.708-1.463-11.531-1.463-17.498 0-5.966.516-11.818 1.463-17.497h22.144c2.209-10.355 6.282-19.993 11.847-28.57l-15.662-15.69c6.827-9.552 15.174-17.899 24.726-24.726l15.69 15.662c8.577-5.594 18.215-9.667 28.57-11.847v-22.145c5.68-.947 11.531-1.463 17.498-1.463s11.789.516 17.497 1.463z" fill="#ffd54f" fill-rule="evenodd"/></g><g><path clip-rule="evenodd" d="m405.253 412.947c35.052 0 63.622-28.57 63.622-63.622s-28.57-63.651-63.622-63.651-63.651 28.598-63.651 63.651 28.598 63.622 63.651 63.622z" fill="#ffc328" fill-rule="evenodd"/></g><g><path clip-rule="evenodd" d="m405.253 400.469c28.168 0 51.145-22.976 51.145-51.144s-22.976-51.144-51.145-51.144c-28.168 0-51.144 22.976-51.144 51.144s22.976 51.144 51.144 51.144z" fill="#e8f0fe" fill-rule="evenodd"/></g><path d="m275.599 265.523c-10.479 0-19.004 8.537-19.004 19.032 0 10.479 8.525 19.004 19.004 19.004 10.494 0 19.032-8.525 19.032-19.004 0-10.495-8.538-19.032-19.032-19.032z" fill="#fe646f"/></g></svg>