<svg height="512" viewBox="0 0 48 48" width="512" xmlns="http://www.w3.org/2000/svg"><g id="Icons"><path d="m3 24a1.059 1.059 0 0 0 .136-.009 77.375 77.375 0 0 0 21.274-6.079 77.1 77.1 0 0 0 18.838-12.028l-1.218 4.874a1 1 0 0 0 .727 1.212 1.025 1.025 0 0 0 .243.03 1 1 0 0 0 .969-.758l2-8a1 1 0 0 0 -.969-1.242h-8a1 1 0 0 0 0 2h5.369a75.2 75.2 0 0 1 -18.779 12.088 75.363 75.363 0 0 1 -20.725 5.921 1 1 0 0 0 .135 1.991z"/><path d="m45 44h-1v-27a1 1 0 0 0 -1-1h-10a1 1 0 0 0 -1 1v27h-2v-21a1 1 0 0 0 -1-1h-10a1 1 0 0 0 -1 1v21h-2v-15a1 1 0 0 0 -1-1h-10a1 1 0 0 0 -1 1v15h-1a1 1 0 0 0 0 2h42a1 1 0 0 0 0-2zm-11-26h8v26h-8zm-14 6h8v20h-8zm-14 6h8v14h-8z"/></g></svg>