<?xml version="1.0" encoding="UTF-8" standalone="no"?>
<!-- Created with Inkscape (http://www.inkscape.org/) -->

<svg
   version="1.1"
   id="svg3279"
   xml:space="preserve"
   width="682.66669"
   height="682.66669"
   viewBox="0 0 682.66669 682.66669"
   xmlns="http://www.w3.org/2000/svg"
   xmlns:svg="http://www.w3.org/2000/svg"><defs
     id="defs3283"><clipPath
       clipPathUnits="userSpaceOnUse"
       id="clipPath3313"><path
         d="M 0,512 H 512 V 0 H 0 Z"
         id="path3311" /></clipPath></defs><g
     id="g3285"
     transform="matrix(1.3333333,0,0,-1.3333333,0,682.66667)"><g
       id="g3287"
       transform="translate(254.7104,225.6909)"><path
         d="M 0,0 23.34,61.283 25.947,61.286 49.076,0"
         style="fill:none;stroke:#000000;stroke-width:15;stroke-linecap:square;stroke-linejoin:miter;stroke-miterlimit:10;stroke-dasharray:none;stroke-opacity:1"
         id="path3289" /></g><g
       id="g3291"
       transform="translate(261.9897,240.9536)"><path
         d="M 0,0 H 34.635"
         style="fill:none;stroke:#000000;stroke-width:15;stroke-linecap:round;stroke-linejoin:bevel;stroke-miterlimit:10;stroke-dasharray:none;stroke-opacity:1"
         id="path3293" /></g><g
       id="g3295"
       transform="translate(65.6558,287.1294)"><path
         d="M 0,0 V -62.106 H 21.766"
         style="fill:none;stroke:#000000;stroke-width:15;stroke-linecap:square;stroke-linejoin:miter;stroke-miterlimit:3;stroke-dasharray:none;stroke-opacity:1"
         id="path3297" /></g><g
       id="g3299"
       transform="translate(144.4639,287.1294)"><path
         d="M 0,0 H -25.952 V -61.591 H 0"
         style="fill:none;stroke:#000000;stroke-width:15;stroke-linecap:square;stroke-linejoin:miter;stroke-miterlimit:10;stroke-dasharray:none;stroke-opacity:1"
         id="path3301" /></g><g
       id="g3303"
       transform="translate(142.5508,256.334)"><path
         d="M 0,0 H -21.939"
         style="fill:none;stroke:#000000;stroke-width:15;stroke-linecap:square;stroke-linejoin:miter;stroke-miterlimit:10;stroke-dasharray:none;stroke-opacity:1"
         id="path3305" /></g><g
       id="g3307"><g
         id="g3309"
         clip-path="url(#clipPath3313)"><g
           id="g3315"
           transform="translate(222.0972,282.105)"><path
             d="m 0,0 c -4.96,3.352 -10.94,5.308 -17.377,5.308 -17.165,0 -31.079,-13.915 -31.079,-31.079 0,-17.165 13.914,-31.08 31.079,-31.08 17.165,0 26.829,13.915 26.829,31.08 H -9.142"
             style="fill:none;stroke:#000000;stroke-width:15;stroke-linecap:square;stroke-linejoin:miter;stroke-miterlimit:10;stroke-dasharray:none;stroke-opacity:1"
             id="path3317" /></g><g
           id="g3319"
           transform="translate(406.7979,286.7427)"><path
             d="M 0,0 19.855,-30.407 39.547,-0.158"
             style="fill:none;stroke:#000000;stroke-width:15;stroke-linecap:square;stroke-linejoin:round;stroke-miterlimit:10;stroke-dasharray:none;stroke-opacity:1"
             id="path3321" /></g><g
           id="g3323"
           transform="translate(426.5752,224.584)"><path
             d="M 0,0 0.078,31.751"
             style="fill:none;stroke:#000000;stroke-width:15;stroke-linecap:square;stroke-linejoin:round;stroke-miterlimit:10;stroke-dasharray:none;stroke-opacity:1"
             id="path3325" /></g><g
           id="g3327"
           transform="translate(374.6519,282.1079)"><path
             d="m 0,0 c -4.96,3.352 -10.94,5.308 -17.377,5.308 -17.166,0 -31.081,-13.915 -31.081,-31.08 0,-17.166 13.915,-31.082 31.081,-31.082 7.722,0 14.609,2.847 19.58,8.774"
             style="fill:none;stroke:#000000;stroke-width:15;stroke-linecap:square;stroke-linejoin:miter;stroke-miterlimit:10;stroke-dasharray:none;stroke-opacity:1"
             id="path3329" /></g><g
           id="g3331"
           transform="translate(233.5,184.75)"><path
             d="m 0,0 h -211 c -8.25,0 -15,6.75 -15,15 v 112.5 c 0,8.25 6.75,15 15,15 h 467 c 8.25,0 15,-6.75 15,-15 V 15 C 271,6.75 264.25,0 256,0 H 45 M 30,0 H 15"
             style="fill:none;stroke:#000000;stroke-width:15;stroke-linecap:butt;stroke-linejoin:miter;stroke-miterlimit:22.926;stroke-dasharray:none;stroke-opacity:1"
             id="path3333" /></g><g
           id="g3335"
           transform="translate(44.2114,327.2505)"><path
             d="m 0,0 -1.471,51.875 58.523,31.611 31.611,58.523 66.488,-1.885 56.638,34.876 56.637,-34.876 66.488,1.885 L 366.525,83.486 425.048,51.875 423.577,0 m 0,-142.5 1.471,-51.876 -58.523,-31.611 -31.611,-58.523 -66.488,1.885 -56.637,-34.875 -56.638,34.875 -66.488,-1.885 -31.611,58.523 -58.523,31.611 L 0,-142.5"
             style="fill:none;stroke:#000000;stroke-width:15;stroke-linecap:butt;stroke-linejoin:miter;stroke-miterlimit:22.926;stroke-dasharray:none;stroke-opacity:1"
             id="path3337" /></g><g
           id="g3339"
           transform="translate(163.4575,410.4097)"><path
             d="m 0,0 c 27.041,16.245 58.699,25.59 92.542,25.59 74.1,0 137.731,-44.779 165.336,-108.749 m -330.671,0 c 12.986,30.095 33.949,55.941 60.222,74.877 M 257.878,-225.66 c -27.604,-63.97 -91.236,-108.75 -165.336,-108.75 -74.099,0 -137.731,44.78 -165.335,108.75"
             style="fill:none;stroke:#000000;stroke-width:15;stroke-linecap:butt;stroke-linejoin:miter;stroke-miterlimit:22.926;stroke-dasharray:none;stroke-opacity:1"
             id="path3341" /></g><g
           id="g3343"
           transform="translate(338.499,368.5005)"><path
             d="m 0,0 v 15 m -30,0 v 15"
             style="fill:none;stroke:#000000;stroke-width:15;stroke-linecap:butt;stroke-linejoin:miter;stroke-miterlimit:2.613;stroke-dasharray:none;stroke-opacity:1"
             id="path3345" /></g></g></g></g></svg>
