<svg id="Layer_1" viewBox="0 0 512 512" xmlns="http://www.w3.org/2000/svg" data-name="Layer 1"><path d="m278.193 388.623c-1.479-1.328-3.453-1.962-5.43-1.75-4.787.519-9.617.782-14.357.782-72.586 0-131.639-59.053-131.639-131.639s59.053-131.638 131.639-131.638c4.74 0 9.571.263 14.357.782 1.976.214 3.951-.421 5.43-1.75 1.479-1.328 2.325-3.222 2.325-5.209v-107.201c0-3.866-3.134-7-7-7h-55.883c-3.344 0-6.221 2.365-6.868 5.646l-8.99 45.59-45.231 18.763-38.618-25.898c-2.779-1.862-6.484-1.5-8.849.864l-57.688 57.688c-2.365 2.364-2.727 6.071-.864 8.849l25.897 38.618-18.763 45.231-45.59 8.989c-3.281.647-5.646 3.524-5.646 6.868v81.584c0 3.344 2.365 6.221 5.646 6.868l45.59 8.989 18.763 45.231-25.897 38.618c-1.862 2.777-1.5 6.484.864 8.849l57.688 57.688c2.364 2.364 6.07 2.726 8.849.864l38.618-25.898 45.231 18.763 8.99 45.59c.647 3.281 3.524 5.646 6.868 5.646h55.883c3.866 0 7-3.134 7-7v-107.168c0-1.988-.845-3.882-2.325-5.209zm-11.675 105.377h-43.128l-8.601-43.62c-.453-2.297-2.023-4.215-4.186-5.112l-52.157-21.636c-2.165-.898-4.635-.653-6.581.652l-36.954 24.782-49.55-49.55 24.782-36.954c1.305-1.946 1.55-4.417.652-6.581l-21.636-52.158c-.897-2.162-2.815-3.733-5.112-4.186l-43.62-8.601v-70.075l43.62-8.601c2.297-.453 4.215-2.023 5.112-4.186l21.636-52.158c.898-2.165.653-4.635-.652-6.581l-24.782-36.954 49.55-49.55 36.954 24.782c1.946 1.305 4.417 1.55 6.581.652l52.157-21.636c2.162-.897 3.733-2.815 4.186-5.112l8.601-43.62h43.128v92.608c-2.716-.151-5.426-.228-8.112-.228-80.306 0-145.639 65.333-145.639 145.638s65.333 145.639 145.639 145.639c2.686 0 5.396-.076 8.112-.228v92.573zm238.467-255.264c.386-1.88.588-3.826.588-5.818 0-10.26-5.378-19.283-13.458-24.414 4.655-5.133 7.495-11.94 7.495-19.399 0-15.938-12.967-28.906-28.906-28.906h-61.201c3.305-27.595 7.648-81.219-15.791-105.039-9.101-9.249-21.211-13.095-35.998-11.434-8.674.975-14.895 8.551-14.162 17.25 6.089 72.284-10.653 100.969-66.028 110.802-3.403-5.355-9.372-8.926-16.173-8.926h-35.804c-10.568 0-19.166 8.598-19.166 19.167v147.993c0 10.569 8.598 19.167 19.166 19.167h35.804c7.8 0 14.514-4.691 17.503-11.394 2.109.169 4.062.379 5.903.62.424.056.847.112 1.259.171 3.117.447 5.904.991 8.527 1.604 3.806.89 7.284 1.923 10.954 3.018 5.857 1.747 11.913 3.553 20.194 5.062 9.637 1.755 20.064 2.416 30.791 2.416h.003c17.7 0 36.213-1.802 53.301-3.465 7.166-.697 13.938-1.356 20.424-1.868h30.563c14.807 0 26.854-12.046 26.854-26.854 0-5.806-1.858-11.183-5.003-15.58 9.414-4.418 16.075-13.762 16.631-24.695.025-.492.038-.987.038-1.485 0-7.396-2.796-14.15-7.382-19.268 6.616-4.125 11.455-10.843 13.072-18.725zm-34.596 52.9h-49.889c-8.219 0-14.906-6.687-14.906-14.906s6.687-14.906 14.906-14.906h49.889c8.219 0 14.906 6.687 14.906 14.906s-6.687 14.906-14.906 14.906zm21.107-57.196c-.765 7.507-7.124 13.384-14.829 13.384h-57.916c-8.219 0-14.906-6.687-14.906-14.906s6.687-14.906 14.906-14.906h57.916c7.706 0 14.064 5.877 14.829 13.384.051.5.077 1.008.077 1.522s-.026 1.021-.077 1.522zm-20.792-60.24c8.219 0 14.906 6.687 14.906 14.906s-6.687 14.906-14.906 14.906h-43.453c-8.219 0-14.906-6.687-14.906-14.906s6.687-14.906 14.906-14.906zm-124.505-28.084c11.216-19.349 14.703-45.969 11.304-86.313-.09-1.072.706-2.042 1.775-2.163 10.441-1.172 18.44 1.228 24.455 7.341 21.17 21.514 13.437 81.585 10.895 101.325-.004.032-.003.063-.007.095-.017.148-.026.298-.034.449-.005.097-.012.194-.012.291 0 .134.006.269.013.405.005.111.009.223.02.333.003.027.002.054.005.082 4.447 40.678-5.896 61.272-35.7 71.083-3.672 1.208-5.669 5.166-4.46 8.837.969 2.946 3.707 4.813 6.647 4.813.726 0 1.464-.114 2.19-.353 11.461-3.772 20.225-8.943 26.884-15.067 1.121 7.385 5.051 13.856 10.658 18.3-5.677 5.281-9.237 12.809-9.237 21.156 0 11.51 6.764 21.468 16.525 26.115-3.173 4.409-5.049 9.811-5.049 15.646 0 5.496 1.662 10.609 4.507 14.87-3.311.322-6.672.647-10.07.963-23.62 2.195-48.875 3.884-69.305.164-7.525-1.37-13.207-3.065-18.701-4.704-3.337-.995-6.617-1.969-10.164-2.85-.956-.237-1.924-.47-2.926-.692-.08-.018-.165-.034-.246-.052-3.6-.79-7.559-1.467-12.154-1.971-1.124-.123-2.285-.237-3.492-.338v-138.423c32.655-5.942 53.617-18.53 65.682-39.343zm-79.682 183.897c0 2.849-2.317 5.167-5.166 5.167h-35.804c-2.849 0-5.166-2.318-5.166-5.167v-147.993c0-2.849 2.317-5.167 5.166-5.167h35.804c2.849 0 5.166 2.318 5.166 5.167zm194.257 1.331h-30.852c-7.087 0-12.854-5.766-12.854-12.854s5.766-12.854 12.854-12.854h30.852c7.087 0 12.854 5.766 12.854 12.854s-5.766 12.854-12.854 12.854zm-92.008 40.098c-37.649 0-68.28 30.63-68.28 68.279s30.63 68.28 68.28 68.28 68.279-30.63 68.279-68.28-30.63-68.279-68.279-68.279zm0 122.559c-29.93 0-54.28-24.35-54.28-54.28s24.35-54.279 54.28-54.279 54.279 24.35 54.279 54.279-24.35 54.28-54.279 54.28zm29.933-77.854c2.734 2.733 2.734 7.166 0 9.899l-37.248 37.249c-1.321 1.321-3.105 2.05-4.949 2.05-.304 0-.609-.02-.914-.06-2.158-.284-4.061-1.555-5.148-3.44l-12.72-22.031c-1.933-3.348-.786-7.629 2.562-9.562 3.347-1.933 7.629-.786 9.562 2.562l8.159 14.13 30.797-30.798c2.733-2.733 7.166-2.733 9.899 0z"/></svg>